<svg width="253px" height="40" xmlns="http://www.w3.org/2000/svg" viewBox="-83.69999999999999 15.559999084472658 667.4 118.88000183105468" style="background: rgb(255, 255, 255); --darkreader-inline-bgimage: initial; --darkreader-inline-bgcolor:#1b0907;" data-darkreader-inline-bgimage="" data-darkreader-inline-bgcolor="" preserveAspectRatio="xMidYMid"><defs><filter id="editing-extrude-glow"><feFlood flood-color="#ffffff" result="flood-1"></feFlood><feMorphology operator="erode" radius="1" in="SourceAlpha" result="erode"></feMorphology><feComposite operator="in" in="flood-1" in2="erode" result="comp1"></feComposite><feConvolveMatrix order="3,3" divisor="1" in="comp1" result="convolve" kernelMatrix="0 0 0 1 1 1 0 0 0"></feConvolveMatrix><feOffset dx="-3" dy="0" in="convolve" result="extrude"></feOffset><feComposite operator="in" in="flood-1" in2="extrude" result="comp-extrude"></feComposite><feFlood flood-color="#ffffff" result="flood-2"></feFlood><feComposite operator="in" in="flood-2" in2="SourceAlpha" result="comp2"></feComposite><feMorphology operator="dilate" radius="1" in="comp2" result="dilate"></feMorphology><feOffset dx="-4.5" dy="0" in="dilate" result="offset"></feOffset><feGaussianBlur in="offset" stdDeviation="5.8" result="blur"></feGaussianBlur><feComponentTransfer in="blur" result="shadow"><feFuncA type="linear" slope="0.8" intercept="-0.2"></feFuncA></feComponentTransfer><feMerge><feMergeNode in="shadow"></feMergeNode><feMergeNode in="comp-extrude"></feMergeNode><feMergeNode in="SourceGraphic"></feMergeNode></feMerge></filter></defs><g filter="url(#editing-extrude-glow)"><g transform="translate(11.82002305984497, 96.36000442504883)"><path d="M59.52-41.23L59.52-32.54L56.87-32.54L56.87-8.69L59.52-8.69L59.52 0L39.48 0L39.48-8.69L42.03-8.69L42.03-27.24L33.02 0L25.18 0L15.90-26.98L15.90-8.69L18.44-8.69L18.44 0L1.06 0L1.06-8.69L3.71-8.69L3.71-32.54L1.06-32.54L1.06-41.23L25.33-41.23L30.85-24.70L36.15-41.23L59.52-41.23ZM97.41 0L61.64 0L61.64-8.69L64.29-8.69L64.29-32.54L61.64-32.54L61.64-41.23L97.41-41.23L97.41-25.23L85.54-25.23L85.54-32.54L79.13-32.54L79.13-24.17L83.79-24.17L83.79-18.13L79.13-18.13L79.13-8.69L85.54-8.69L85.54-17.07L97.41-17.07L97.41 0ZM139.39-21.15L139.39-13.25L136.74-13.25L136.74-2.65L136.74-2.65Q134.41-1.32 129.93-0.29L129.93-0.29L129.93-0.29Q125.45 0.74 120.26 0.74L120.26 0.74L120.26 0.74Q110.35 0.74 104.73-4.48L104.73-4.48L104.73-4.48Q99.11-9.70 99.11-20.62L99.11-20.62L99.11-20.62Q99.11-31.80 104.70-36.89L104.70-36.89L104.70-36.89Q110.29-41.98 120.68-41.98L120.68-41.98L120.68-41.98Q125.72-41.98 130.12-40.92L130.12-40.92L130.12-40.92Q134.51-39.86 136.74-38.53L136.74-38.53L136.74-25.86L123.49-25.86L123.49-28.36L123.49-28.36Q123.49-30.58 122.56-31.56L122.56-31.56L122.56-31.56Q121.63-32.54 119.62-32.54L119.62-32.54L119.62-32.54Q117.61-32.54 116.68-31.56L116.68-31.56L116.68-31.56Q115.75-30.58 115.75-28.36L115.75-28.36L115.75-12.88L115.75-12.88Q115.75-10.65 116.68-9.67L116.68-9.67L116.68-9.67Q117.61-8.69 119.62-8.69L119.62-8.69L119.62-8.69Q121.63-8.69 122.56-9.67L122.56-9.67L122.56-9.67Q123.49-10.65 123.49-12.88L123.49-12.88L123.49-13.25L120.63-13.25L120.63-21.15L139.39-21.15ZM170.82-41.23L179.78-8.69L181.90-8.69L181.90 0L161.12 0L161.12-8.69L164.30-8.69L163.45-12.93L156.24-12.93L155.40-8.69L158.58-8.69L158.58 0L140.45 0L140.45-8.69L142.57-8.69L151.53-41.23L170.82-41.23ZM159.58-29.10L157.41-18.55L162.29-18.55L160.11-29.10L159.58-29.10ZM232.30 0L199.49 0L199.49-8.69L202.14-8.69L202.14-32.54L199.49-32.54L199.49-41.23L221.86-41.23L221.86-32.54L216.98-32.54L216.98-8.69L221.75-8.69L221.75-13.57L232.30-13.57L232.30 0ZM254.03 0.74L254.03 0.74Q244.33 0.74 239.06-4.35L239.06-4.35L239.06-4.35Q233.78-9.43 233.78-20.62L233.78-20.62L233.78-20.62Q233.78-31.80 239.06-36.89L239.06-36.89L239.06-36.89Q244.33-41.98 254.03-41.98L254.03-41.98L254.03-41.98Q263.73-41.98 269.00-36.89L269.00-36.89L269.00-36.89Q274.27-31.80 274.27-20.62L274.27-20.62L274.27-20.62Q274.27-9.43 269.00-4.35L269.00-4.35L269.00-4.35Q263.73 0.74 254.03 0.74L254.03 0.74ZM254.03-8.69L254.03-8.69Q255.83-8.69 256.73-9.65L256.73-9.65L256.73-9.65Q257.63-10.60 257.63-12.61L257.63-12.61L257.63-28.62L257.63-28.62Q257.63-30.63 256.73-31.59L256.73-31.59L256.73-31.59Q255.83-32.54 254.03-32.54L254.03-32.54L254.03-32.54Q252.23-32.54 251.33-31.59L251.33-31.59L251.33-31.59Q250.43-30.63 250.43-28.62L250.43-28.62L250.43-12.61L250.43-12.61Q250.43-10.55 251.33-9.62L251.33-9.62L251.33-9.62Q252.23-8.69 254.03-8.69L254.03-8.69ZM350.44-41.23L350.44-32.54L347.79-32.54L347.79-8.69L350.44-8.69L350.44 0L330.40 0L330.40-8.69L332.95-8.69L332.95-27.24L323.94 0L316.09 0L306.82-26.98L306.82-8.69L309.36-8.69L309.36 0L291.98 0L291.98-8.69L294.63-8.69L294.63-32.54L291.98-32.54L291.98-41.23L316.25-41.23L321.76-24.70L327.06-41.23L350.44-41.23ZM382.50-41.23L391.46-8.69L393.58-8.69L393.58 0L372.80 0L372.80-8.69L375.98-8.69L375.13-12.93L367.93-12.93L367.08-8.69L370.26-8.69L370.26 0L352.13 0L352.13-8.69L354.25-8.69L363.21-41.23L382.50-41.23ZM371.26-29.10L369.09-18.55L373.97-18.55L371.79-29.10L371.26-29.10ZM395.27 0L395.27-8.69L397.92-8.69L397.92-32.54L395.27-32.54L395.27-41.23L419.60-41.23L419.60-41.23Q426.44-41.23 430.04-38.42L430.04-38.42L430.04-38.42Q433.65-35.62 433.65-29.31L433.65-29.31L433.65-29.31Q433.65-25.76 432.21-23.16L432.21-23.16L432.21-23.16Q430.78-20.56 428.13-19.56L428.13-19.56L428.19-19.03L428.19-19.03Q433.27-18.23 433.27-12.77L433.27-12.77L433.27-8.69L435.77-8.69L435.77 0L418.96 0L418.96-12.46L418.96-12.46Q418.96-14.52 418.36-15.58L418.36-15.58L418.36-15.58Q417.75-16.64 416.45-17.01L416.45-17.01L416.45-17.01Q415.15-17.38 412.76-17.38L412.76-17.38L412.76-8.69L416.26-8.69L416.26 0L395.27 0ZM412.76-23.85L415.63-23.85L415.63-23.85Q417.16-23.85 417.93-24.67L417.93-24.67L417.93-24.67Q418.70-25.49 418.70-27.24L418.70-27.24L418.70-29.15L418.70-29.15Q418.70-30.90 417.93-31.72L417.93-31.72L417.93-31.72Q417.16-32.54 415.63-32.54L415.63-32.54L412.76-32.54L412.76-23.85ZM475.30-41.23L475.30-28.41L466.19-28.41L466.19-32.54L462.80-32.54L462.80-8.69L466.51-8.69L466.51 0L444.25 0L444.25-8.69L447.96-8.69L447.96-32.54L444.56-32.54L444.56-28.41L435.45-28.41L435.45-41.23L475.30-41.23Z" fill="#cd2215"></path></g></g><style>text {
  font-size: 64px;
  font-family: Arial Black;
  dominant-baseline: central;
  text-anchor: middle;
}</style></svg> 