<svg width="253px" height="23px" xmlns="http://www.w3.org/2000/svg" viewBox="-182.8275146484375 39.07999954223633 865.655029296875 71.84000091552734" style="background: rgb(0, 89, 167); --darkreader-inline-bgimage: initial; --darkreader-inline-bgcolor:#1b0907;" data-darkreader-inline-bgimage="" data-darkreader-inline-bgcolor="" preserveAspectRatio="xMidYMid"><defs><filter id="editing-extrude-glow"><feFlood flood-color="#000000" result="flood-1"></feFlood><feMorphology operator="erode" radius="1" in="SourceAlpha" result="erode"></feMorphology><feComposite operator="in" in="flood-1" in2="erode" result="comp1"></feComposite><feConvolveMatrix order="1,1" divisor="1" in="comp1" result="convolve" kernelMatrix=""></feConvolveMatrix><feOffset dx="0" dy="0" in="convolve" result="extrude"></feOffset><feComposite operator="in" in="flood-1" in2="extrude" result="comp-extrude"></feComposite><feFlood flood-color="#000000" result="flood-2"></feFlood><feComposite operator="in" in="flood-2" in2="SourceAlpha" result="comp2"></feComposite><feMorphology operator="dilate" radius="1" in="comp2" result="dilate"></feMorphology><feOffset dx="0" dy="0" in="dilate" result="offset"></feOffset><feGaussianBlur in="offset" stdDeviation="5.8" result="blur"></feGaussianBlur><feComponentTransfer in="blur" result="shadow"><feFuncA type="linear" slope="0.8" intercept="-0.2"></feFuncA></feComponentTransfer><feMerge><feMergeNode in="shadow"></feMergeNode><feMergeNode in="comp-extrude"></feMergeNode><feMergeNode in="SourceGraphic"></feMergeNode></feMerge></filter></defs><g filter="url(#editing-extrude-glow)"><g transform="translate(-60.8100001513958, 86.28500175476074)"><path d="M9.24 0.39L9.24 0.39Q6.55 0.39 4.16-0.07L4.16-0.07L4.16-0.07Q1.76-0.53 0.48-1.12L0.48-1.12L0.48-6.66L6.64-6.66L6.64-6.66Q6.64-5.80 7.03-5.40L7.03-5.40L7.03-5.40Q7.42-5.01 8.46-5.01L8.46-5.01L8.46-5.01Q9.32-5.01 9.70-5.28L9.70-5.28L9.70-5.28Q10.08-5.54 10.08-6.08L10.08-6.08L10.08-6.08Q10.08-6.52 9.72-6.85L9.72-6.85L9.72-6.85Q9.35-7.17 8.46-7.50L8.46-7.50L6.05-8.34L6.05-8.34Q2.94-9.52 1.58-11.12L1.58-11.12L1.58-11.12Q0.22-12.71 0.22-15.43L0.22-15.43L0.22-15.43Q0.22-18.73 2.39-20.45L2.39-20.45L2.39-20.45Q4.56-22.18 9.63-22.18L9.63-22.18L9.63-22.18Q12.07-22.18 14.21-21.69L14.21-21.69L14.21-21.69Q16.35-21.20 17.67-20.38L17.67-20.38L17.67-15.37L12.07-15.37L12.07-15.37Q12.07-16.77 10.33-16.77L10.33-16.77L10.33-16.77Q9.49-16.77 9.14-16.56L9.14-16.56L9.14-16.56Q8.79-16.35 8.79-15.82L8.79-15.82L8.79-15.82Q8.79-15.34 9.20-15.06L9.20-15.06L9.20-15.06Q9.60-14.78 10.53-14.48L10.53-14.48L12.96-13.64L12.96-13.64Q15.93-12.63 17.29-11.02L17.29-11.02L17.29-11.02Q18.65-9.41 18.65-6.80L18.65-6.80L18.65-6.80Q18.65-3.25 16.25-1.43L16.25-1.43L16.25-1.43Q13.86 0.39 9.24 0.39L9.24 0.39ZM41.83-21.78L41.83-17.19L40.43-17.19L40.43-4.59L41.83-4.59L41.83 0L31.25 0L31.25-4.59L32.59-4.59L32.59-9.21L28.67-9.21L28.67-4.59L30.02-4.59L30.02 0L19.43 0L19.43-4.59L20.83-4.59L20.83-17.19L19.43-17.19L19.43-21.78L30.02-21.78L30.02-17.19L28.67-17.19L28.67-12.94L32.59-12.94L32.59-17.19L31.25-17.19L31.25-21.78L41.83-21.78ZM53.48 0.39L53.48 0.39Q48.36 0.39 45.57-2.30L45.57-2.30L45.57-2.30Q42.78-4.98 42.78-10.89L42.78-10.89L42.78-10.89Q42.78-16.80 45.57-19.49L45.57-19.49L45.57-19.49Q48.36-22.18 53.48-22.18L53.48-22.18L53.48-22.18Q58.60-22.18 61.39-19.49L61.39-19.49L61.39-19.49Q64.18-16.80 64.18-10.89L64.18-10.89L64.18-10.89Q64.18-4.98 61.39-2.30L61.39-2.30L61.39-2.30Q58.60 0.39 53.48 0.39L53.48 0.39ZM53.48-4.59L53.48-4.59Q54.43-4.59 54.91-5.10L54.91-5.10L54.91-5.10Q55.38-5.60 55.38-6.66L55.38-6.66L55.38-15.12L55.38-15.12Q55.38-16.18 54.91-16.69L54.91-16.69L54.91-16.69Q54.43-17.19 53.48-17.19L53.48-17.19L53.48-17.19Q52.53-17.19 52.05-16.69L52.05-16.69L52.05-16.69Q51.58-16.18 51.58-15.12L51.58-15.12L51.58-6.66L51.58-6.66Q51.58-5.57 52.05-5.08L52.05-5.08L52.05-5.08Q52.53-4.59 53.48-4.59L53.48-4.59ZM65.13 0L65.13-4.59L66.53-4.59L66.53-17.19L65.13-17.19L65.13-21.78L77.42-21.78L77.42-21.78Q81.03-21.78 82.94-20.23L82.94-20.23L82.94-20.23Q84.84-18.68 84.84-15.20L84.84-15.20L84.84-15.20Q84.84-11.73 82.94-10.18L82.94-10.18L82.94-10.18Q81.03-8.62 77.42-8.62L77.42-8.62L74.37-8.62L74.37-4.59L77.06-4.59L77.06 0L65.13 0ZM74.37-12.60L75.32-12.60L75.32-12.60Q76.94-12.60 76.94-14.39L76.94-14.39L76.94-15.40L76.94-15.40Q76.94-16.32 76.54-16.76L76.54-16.76L76.54-16.76Q76.13-17.19 75.32-17.19L75.32-17.19L74.37-17.19L74.37-12.60ZM85.79 0L85.79-4.59L87.19-4.59L87.19-17.19L85.79-17.19L85.79-21.78L98.08-21.78L98.08-21.78Q101.70-21.78 103.60-20.23L103.60-20.23L103.60-20.23Q105.50-18.68 105.50-15.20L105.50-15.20L105.50-15.20Q105.50-11.73 103.60-10.18L103.60-10.18L103.60-10.18Q101.70-8.62 98.08-8.62L98.08-8.62L95.03-8.62L95.03-4.59L97.72-4.59L97.72 0L85.79 0ZM95.03-12.60L95.98-12.60L95.98-12.60Q97.61-12.60 97.61-14.39L97.61-14.39L97.61-15.40L97.61-15.40Q97.61-16.32 97.20-16.76L97.20-16.76L97.20-16.76Q96.80-17.19 95.98-17.19L95.98-17.19L95.03-17.19L95.03-12.60ZM117.10 0L106.46 0L106.46-4.59L107.86-4.59L107.86-17.19L106.46-17.19L106.46-21.78L117.10-21.78L117.10-17.19L115.70-17.19L115.70-4.59L117.10-4.59L117.10 0ZM134.34-17.19L134.34-21.78L143.53-21.78L143.53-17.19L142.13-17.19L142.13 0L134.26 0L126.06-12.63L126.06-4.59L127.40-4.59L127.40 0L118.22 0L118.22-4.59L119.62-4.59L119.62-17.19L118.22-17.19L118.22-21.78L128.32-21.78L135.69-10.56L135.69-17.19L134.34-17.19ZM165.70-11.17L165.70-7L164.30-7L164.30-1.40L164.30-1.40Q163.07-0.70 160.71-0.15L160.71-0.15L160.71-0.15Q158.34 0.39 155.60 0.39L155.60 0.39L155.60 0.39Q150.36 0.39 147.39-2.37L147.39-2.37L147.39-2.37Q144.42-5.12 144.42-10.89L144.42-10.89L144.42-10.89Q144.42-16.80 147.38-19.49L147.38-19.49L147.38-19.49Q150.33-22.18 155.82-22.18L155.82-22.18L155.82-22.18Q158.48-22.18 160.80-21.62L160.80-21.62L160.80-21.62Q163.13-21.06 164.30-20.36L164.30-20.36L164.30-13.66L157.30-13.66L157.30-14.98L157.30-14.98Q157.30-16.16 156.81-16.67L156.81-16.67L156.81-16.67Q156.32-17.19 155.26-17.19L155.26-17.19L155.26-17.19Q154.20-17.19 153.71-16.67L153.71-16.67L153.71-16.67Q153.22-16.16 153.22-14.98L153.22-14.98L153.22-6.80L153.22-6.80Q153.22-5.63 153.71-5.11L153.71-5.11L153.71-5.11Q154.20-4.59 155.26-4.59L155.26-4.59L155.26-4.59Q156.32-4.59 156.81-5.11L156.81-5.11L156.81-5.11Q157.30-5.63 157.30-6.80L157.30-6.80L157.30-7L155.79-7L155.79-11.17L165.70-11.17ZM187.80 0L174.89 0L174.89-4.59L176.29-4.59L176.29-17.19L174.89-17.19L174.89-21.78L191.63-21.78L191.63-14.53L186.68-14.53L186.68-17.19L184.13-17.19L184.13-12.54L188.36-12.54L188.36-9.35L184.13-9.35L184.13-4.59L187.80-4.59L187.80 0ZM203.11 0.39L203.11 0.39Q197.99 0.39 195.20-2.30L195.20-2.30L195.20-2.30Q192.42-4.98 192.42-10.89L192.42-10.89L192.42-10.89Q192.42-16.80 195.20-19.49L195.20-19.49L195.20-19.49Q197.99-22.18 203.11-22.18L203.11-22.18L203.11-22.18Q208.24-22.18 211.02-19.49L211.02-19.49L211.02-19.49Q213.81-16.80 213.81-10.89L213.81-10.89L213.81-10.89Q213.81-4.98 211.02-2.30L211.02-2.30L211.02-2.30Q208.24 0.39 203.11 0.39L203.11 0.39ZM203.11-4.59L203.11-4.59Q204.06-4.59 204.54-5.10L204.54-5.10L204.54-5.10Q205.02-5.60 205.02-6.66L205.02-6.66L205.02-15.12L205.02-15.12Q205.02-16.18 204.54-16.69L204.54-16.69L204.54-16.69Q204.06-17.19 203.11-17.19L203.11-17.19L203.11-17.19Q202.16-17.19 201.68-16.69L201.68-16.69L201.68-16.69Q201.21-16.18 201.21-15.12L201.21-15.12L201.21-6.66L201.21-6.66Q201.21-5.57 201.68-5.08L201.68-5.08L201.68-5.08Q202.16-4.59 203.11-4.59L203.11-4.59ZM214.76 0L214.76-4.59L216.16-4.59L216.16-17.19L214.76-17.19L214.76-21.78L227.61-21.78L227.61-21.78Q231.22-21.78 233.13-20.30L233.13-20.30L233.13-20.30Q235.03-18.82 235.03-15.48L235.03-15.48L235.03-15.48Q235.03-13.61 234.28-12.24L234.28-12.24L234.28-12.24Q233.52-10.86 232.12-10.33L232.12-10.33L232.15-10.05L232.15-10.05Q234.84-9.63 234.84-6.75L234.84-6.75L234.84-4.59L236.15-4.59L236.15 0L227.28 0L227.28-6.58L227.28-6.58Q227.28-7.67 226.95-8.23L226.95-8.23L226.95-8.23Q226.63-8.79 225.95-8.99L225.95-8.99L225.95-8.99Q225.26-9.18 224-9.18L224-9.18L224-4.59L225.85-4.59L225.85 0L214.76 0ZM224-12.60L225.51-12.60L225.51-12.60Q226.32-12.60 226.73-13.03L226.73-13.03L226.73-13.03Q227.14-13.47 227.14-14.39L227.14-14.39L227.14-15.40L227.14-15.40Q227.14-16.32 226.73-16.76L226.73-16.76L226.73-16.76Q226.32-17.19 225.51-17.19L225.51-17.19L224-17.19L224-12.60ZM266.45-21.78L266.45-15.01L261.63-15.01L261.63-17.19L259.84-17.19L259.84-4.59L261.80-4.59L261.80 0L250.04 0L250.04-4.59L252-4.59L252-17.19L250.21-17.19L250.21-15.01L245.39-15.01L245.39-21.78L266.45-21.78ZM289.80-21.78L289.80-17.19L288.40-17.19L288.40-4.59L289.80-4.59L289.80 0L279.22 0L279.22-4.59L280.56-4.59L280.56-9.21L276.64-9.21L276.64-4.59L277.98-4.59L277.98 0L267.40 0L267.40-4.59L268.80-4.59L268.80-17.19L267.40-17.19L267.40-21.78L277.98-21.78L277.98-17.19L276.64-17.19L276.64-12.94L280.56-12.94L280.56-17.19L279.22-17.19L279.22-21.78L289.80-21.78ZM309.82 0L290.92 0L290.92-4.59L292.32-4.59L292.32-17.19L290.92-17.19L290.92-21.78L309.82-21.78L309.82-13.33L303.55-13.33L303.55-17.19L300.16-17.19L300.16-12.77L302.62-12.77L302.62-9.58L300.16-9.58L300.16-4.59L303.55-4.59L303.55-9.02L309.82-9.02L309.82 0ZM319.28 0L319.28-4.59L320.68-4.59L320.68-17.19L319.28-17.19L319.28-21.78L332.14-21.78L332.14-21.78Q335.75-21.78 337.65-20.30L337.65-20.30L337.65-20.30Q339.56-18.82 339.56-15.48L339.56-15.48L339.56-15.48Q339.56-13.61 338.80-12.24L338.80-12.24L338.80-12.24Q338.04-10.86 336.64-10.33L336.64-10.33L336.67-10.05L336.67-10.05Q339.36-9.63 339.36-6.75L339.36-6.75L339.36-4.59L340.68-4.59L340.68 0L331.80 0L331.80-6.58L331.80-6.58Q331.80-7.67 331.48-8.23L331.48-8.23L331.48-8.23Q331.16-8.79 330.47-8.99L330.47-8.99L330.47-8.99Q329.78-9.18 328.52-9.18L328.52-9.18L328.52-4.59L330.37-4.59L330.37 0L319.28 0ZM328.52-12.60L330.04-12.60L330.04-12.60Q330.85-12.60 331.25-13.03L331.25-13.03L331.25-13.03Q331.66-13.47 331.66-14.39L331.66-14.39L331.66-15.40L331.66-15.40Q331.66-16.32 331.25-16.76L331.25-16.76L331.25-16.76Q330.85-17.19 330.04-17.19L330.04-17.19L328.52-17.19L328.52-12.60ZM360.58 0L341.68 0L341.68-4.59L343.08-4.59L343.08-17.19L341.68-17.19L341.68-21.78L360.58-21.78L360.58-13.33L354.31-13.33L354.31-17.19L350.92-17.19L350.92-12.77L353.39-12.77L353.39-9.58L350.92-9.58L350.92-4.59L354.31-4.59L354.31-9.02L360.58-9.02L360.58 0ZM370.33 0.39L370.33 0.39Q367.64 0.39 365.25-0.07L365.25-0.07L365.25-0.07Q362.85-0.53 361.56-1.12L361.56-1.12L361.56-6.66L367.72-6.66L367.72-6.66Q367.72-5.80 368.12-5.40L368.12-5.40L368.12-5.40Q368.51-5.01 369.54-5.01L369.54-5.01L369.54-5.01Q370.41-5.01 370.79-5.28L370.79-5.28L370.79-5.28Q371.17-5.54 371.17-6.08L371.17-6.08L371.17-6.08Q371.17-6.52 370.80-6.85L370.80-6.85L370.80-6.85Q370.44-7.17 369.54-7.50L369.54-7.50L367.14-8.34L367.14-8.34Q364.03-9.52 362.67-11.12L362.67-11.12L362.67-11.12Q361.31-12.71 361.31-15.43L361.31-15.43L361.31-15.43Q361.31-18.73 363.48-20.45L363.48-20.45L363.48-20.45Q365.65-22.18 370.72-22.18L370.72-22.18L370.72-22.18Q373.16-22.18 375.30-21.69L375.30-21.69L375.30-21.69Q377.44-21.20 378.76-20.38L378.76-20.38L378.76-15.37L373.16-15.37L373.16-15.37Q373.16-16.77 371.42-16.77L371.42-16.77L371.42-16.77Q370.58-16.77 370.23-16.56L370.23-16.56L370.23-16.56Q369.88-16.35 369.88-15.82L369.88-15.82L369.88-15.82Q369.88-15.34 370.29-15.06L370.29-15.06L370.29-15.06Q370.69-14.78 371.62-14.48L371.62-14.48L374.05-13.64L374.05-13.64Q377.02-12.63 378.38-11.02L378.38-11.02L378.38-11.02Q379.74-9.41 379.74-6.80L379.74-6.80L379.74-6.80Q379.74-3.25 377.34-1.43L377.34-1.43L377.34-1.43Q374.95 0.39 370.33 0.39L370.33 0.39ZM401.41-21.78L401.41-15.01L396.59-15.01L396.59-17.19L394.80-17.19L394.80-4.59L396.76-4.59L396.76 0L385.00 0L385.00-4.59L386.96-4.59L386.96-17.19L385.17-17.19L385.17-15.01L380.35-15.01L380.35-21.78L401.41-21.78ZM421.29 0.39L421.29 0.39Q416.16 0.39 413.38-2.30L413.38-2.30L413.38-2.30Q410.59-4.98 410.59-10.89L410.59-10.89L410.59-10.89Q410.59-16.80 413.38-19.49L413.38-19.49L413.38-19.49Q416.16-22.18 421.29-22.18L421.29-22.18L421.29-22.18Q426.41-22.18 429.20-19.49L429.20-19.49L429.20-19.49Q431.98-16.80 431.98-10.89L431.98-10.89L431.98-10.89Q431.98-4.98 429.20-2.30L429.20-2.30L429.20-2.30Q426.41 0.39 421.29 0.39L421.29 0.39ZM421.29-4.59L421.29-4.59Q422.24-4.59 422.72-5.10L422.72-5.10L422.72-5.10Q423.19-5.60 423.19-6.66L423.19-6.66L423.19-15.12L423.19-15.12Q423.19-16.18 422.72-16.69L422.72-16.69L422.72-16.69Q422.24-17.19 421.29-17.19L421.29-17.19L421.29-17.19Q420.34-17.19 419.86-16.69L419.86-16.69L419.86-16.69Q419.38-16.18 419.38-15.12L419.38-15.12L419.38-6.66L419.38-6.66Q419.38-5.57 419.86-5.08L419.86-5.08L419.86-5.08Q420.34-4.59 421.29-4.59L421.29-4.59ZM445.84 0L432.94 0L432.94-4.59L434.34-4.59L434.34-17.19L432.94-17.19L432.94-21.78L449.68-21.78L449.68-14.53L444.72-14.53L444.72-17.19L442.18-17.19L442.18-12.54L446.40-12.54L446.40-9.35L442.18-9.35L442.18-4.59L445.84-4.59L445.84 0ZM471.27-17.19L471.27-21.78L479.86-21.78L479.86-17.19L478.74-17.19L473.34-7.50L473.34-4.59L474.74-4.59L474.74 0L464.10 0L464.10-4.59L465.50-4.59L465.50-7.50L459.93-17.19L458.81-17.19L458.81-21.78L469.64-21.78L469.64-17.19L468.66-17.19L470.32-12.85L470.60-12.85L472.25-17.19L471.27-17.19ZM490.45 0.39L490.45 0.39Q485.32 0.39 482.54-2.30L482.54-2.30L482.54-2.30Q479.75-4.98 479.75-10.89L479.75-10.89L479.75-10.89Q479.75-16.80 482.54-19.49L482.54-19.49L482.54-19.49Q485.32-22.18 490.45-22.18L490.45-22.18L490.45-22.18Q495.57-22.18 498.36-19.49L498.36-19.49L498.36-19.49Q501.14-16.80 501.14-10.89L501.14-10.89L501.14-10.89Q501.14-4.98 498.36-2.30L498.36-2.30L498.36-2.30Q495.57 0.39 490.45 0.39L490.45 0.39ZM490.45-4.59L490.45-4.59Q491.40-4.59 491.88-5.10L491.88-5.10L491.88-5.10Q492.35-5.60 492.35-6.66L492.35-6.66L492.35-15.12L492.35-15.12Q492.35-16.18 491.88-16.69L491.88-16.69L491.88-16.69Q491.40-17.19 490.45-17.19L490.45-17.19L490.45-17.19Q489.50-17.19 489.02-16.69L489.02-16.69L489.02-16.69Q488.54-16.18 488.54-15.12L488.54-15.12L488.54-6.66L488.54-6.66Q488.54-5.57 489.02-5.08L489.02-5.08L489.02-5.08Q489.50-4.59 490.45-4.59L490.45-4.59ZM512.57 0.39L512.57 0.39Q508.17 0.39 505.78-1.54L505.78-1.54L505.78-1.54Q503.38-3.47 503.38-7.81L503.38-7.81L503.38-17.19L501.98-17.19L501.98-21.78L512.34-21.78L512.34-17.19L511.22-17.19L511.22-6.38L511.22-6.38Q511.22-5.46 511.63-5.03L511.63-5.03L511.63-5.03Q512.04-4.59 512.85-4.59L512.85-4.59L512.85-4.59Q513.66-4.59 514.07-5.03L514.07-5.03L514.07-5.03Q514.47-5.46 514.47-6.38L514.47-6.38L514.47-17.19L513.35-17.19L513.35-21.78L522.96-21.78L522.96-17.19L521.56-17.19L521.56-7.81L521.56-7.81Q521.56-3.47 519.23-1.54L519.23-1.54L519.23-1.54Q516.91 0.39 512.57 0.39L512.57 0.39ZM523.96 0L523.96-4.59L525.36-4.59L525.36-17.19L523.96-17.19L523.96-21.78L536.82-21.78L536.82-21.78Q540.43-21.78 542.33-20.30L542.33-20.30L542.33-20.30Q544.24-18.82 544.24-15.48L544.24-15.48L544.24-15.48Q544.24-13.61 543.48-12.24L543.48-12.24L543.48-12.24Q542.72-10.86 541.32-10.33L541.32-10.33L541.35-10.05L541.35-10.05Q544.04-9.63 544.04-6.75L544.04-6.75L544.04-4.59L545.36-4.59L545.36 0L536.48 0L536.48-6.58L536.48-6.58Q536.48-7.67 536.16-8.23L536.16-8.23L536.16-8.23Q535.84-8.79 535.15-8.99L535.15-8.99L535.15-8.99Q534.46-9.18 533.20-9.18L533.20-9.18L533.20-4.59L535.05-4.59L535.05 0L523.96 0ZM533.20-12.60L534.72-12.60L534.72-12.60Q535.53-12.60 535.93-13.03L535.93-13.03L535.93-13.03Q536.34-13.47 536.34-14.39L536.34-14.39L536.34-15.40L536.34-15.40Q536.34-16.32 535.93-16.76L535.93-16.76L535.93-16.76Q535.53-17.19 534.72-17.19L534.72-17.19L533.20-17.19L533.20-12.60ZM572.10 0L554.76 0L554.76-4.59L556.16-4.59L556.16-17.19L554.76-17.19L554.76-21.78L566.58-21.78L566.58-17.19L564.00-17.19L564.00-4.59L566.52-4.59L566.52-7.17L572.10-7.17L572.10 0ZM583.69 0L573.05 0L573.05-4.59L574.45-4.59L574.45-17.19L573.05-17.19L573.05-21.78L583.69-21.78L583.69-17.19L582.29-17.19L582.29-4.59L583.69-4.59L583.69 0ZM597.72 0L584.81 0L584.81-4.59L586.21-4.59L586.21-17.19L584.81-17.19L584.81-21.78L601.55-21.78L601.55-14.53L596.60-14.53L596.60-17.19L594.05-17.19L594.05-12.54L598.28-12.54L598.28-9.35L594.05-9.35L594.05-4.59L597.72-4.59L597.72 0ZM621.40 0L602.50 0L602.50-4.59L603.90-4.59L603.90-17.19L602.50-17.19L602.50-21.78L621.40-21.78L621.40-13.33L615.13-13.33L615.13-17.19L611.74-17.19L611.74-12.77L614.21-12.77L614.21-9.58L611.74-9.58L611.74-4.59L615.13-4.59L615.13-9.02L621.40-9.02L621.40 0Z" fill="#ffffff"></path></g></g><style>text {
  font-size: 64px;
  font-family: Arial Black;
  dominant-baseline: central;
  text-anchor: middle;
}</style></svg>